PathFileType	4	(X/Y/Z)	C:\Users\Hakeem\Desktop\Python Projects\BasketballMotionAnalysis\Sports2D_Results\free_throw_Sports2D\free_throw_Sports2D_px_person00.trc
DataRate	CameraRate	NumFrames	NumMarkers	Units	OrigDataRate	OrigDataStartFrame	OrigNumFrames
30.0	30.0	6	22	m	30.0	30	90
Frame#	Time	Hip			RHip			RKnee			RAnkle			RBigToe			RSmallToe			RHeel			LHip			LKnee			LAnkle			LBigToe			LSmallToe			LHeel			Neck			Head			Nose			RShoulder			RElbow			RWrist			LShoulder			LElbow			LWrist			
		X1	Y1	Z1	X2	Y2	Z2	X3	Y3	Z3	X4	Y4	Z4	X5	Y5	Z5	X6	Y6	Z6	X7	Y7	Z7	X8	Y8	Z8	X9	Y9	Z9	X10	Y10	Z10	X11	Y11	Z11	X12	Y12	Z12	X13	Y13	Z13	X14	Y14	Z14	X15	Y15	Z15	X16	Y16	Z16	X17	Y17	Z17	X18	Y18	Z18	X19	Y19	Z19	X20	Y20	Z20	X21	Y21	Z21	X22	Y22	Z22
30	1.0112359550561798	500.93558322955477	674.4464351447691	0.0	492.12608800453154	671.8410958767225	0.0	528.5745625739298	759.2013372496926	0.0	489.218689552091	851.8754331022689	0.0	520.9111625076591	873.1408898659711	0.0	511.00245065513764	875.3552320071246	0.0	475.7318681843745	863.3036037213396	0.0	513.7463001779865	672.3877651425424	0.0	548.4410769708924	754.7109516177293	0.0	519.1660776900991	836.2628757596003	0.0	552.9907442971397	855.8367539959754	0.0	548.272245537052	849.8153217130457	0.0	506.91703834684677	849.057006320433	0.0	536.1670222364817	537.060362998611	0.0	535.2778863884389	474.98599043986854	0.0	559.0992848598366	501.79524479954523	0.0	534.8391718837177	552.681991718913	0.0	573.7897173509976	607.7854662820766	0.0	604.4057668164301	578.7173957643861	0.0	537.4034534453316	554.8179433049909	0.0	573.4383190859769	614.288925658052	0.0	608.4401725852731	595.079564910945	0.0
31	1.044943820224719	502.7194996358897	674.5167062865689	0.0	494.7558482225764	672.1378771249715	0.0	532.8743458147214	759.2562055942924	0.0	490.07493968377446	850.9284932412885	0.0	521.6198808272665	872.5735531178475	0.0	512.0920114302992	875.3650973692918	0.0	476.1499256881948	863.7186459766459	0.0	515.3235293571878	672.4497427852857	0.0	550.5965390573404	755.3772337184419	0.0	519.6524107814935	835.4589281644203	0.0	553.2860852185077	856.071300123413	0.0	548.2412427772759	850.1902281260806	0.0	506.9230165617747	848.8231041623955	0.0	535.5066346091457	536.5949424153472	0.0	532.2649263096974	474.9662175445757	0.0	557.7286649499151	501.95422966977753	0.0	535.1823656161894	552.1378237722207	0.0	580.6381584182907	601.66346596568	0.0	607.6680320484317	567.7742706645987	0.0	537.9973934823737	554.0561722923012	0.0	580.6830599772713	607.5204895306717	0.0	613.2754593492673	580.1882674410018	0.0
32	1.0786516853932584	504.7194068339899	674.8657736766814	0.0	497.76358606354853	672.6248366505215	0.0	538.7930893815739	759.3526128903493	0.0	491.3133540146913	849.5263397360262	0.0	522.7680892767956	871.7836656353486	0.0	513.1050958048464	874.6191232898634	0.0	476.836646206226	863.0088741937244	0.0	516.566560692986	672.7075681832288	0.0	552.3963492036172	756.2530966894277	0.0	520.3378965128197	834.5583480434422	0.0	553.4519364425921	856.2155453737457	0.0	547.9882349099935	850.3353400201692	0.0	506.4954951583505	848.2542269477387	0.0	534.4294388802117	536.8867432405395	0.0	529.4407232654964	475.1043234907906	0.0	556.0954770654591	502.2567344564378	0.0	536.0346121248108	551.9157967181361	0.0	588.1840819079886	593.2641379665549	0.0	611.8418361003187	555.1073774803764	0.0	537.8084336012029	553.3223077488208	0.0	587.038540469045	597.6512822749017	0.0	614.8658416369353	563.3339590733541	0.0
33	1.1123595505617978	506.89686129129615	675.6918584144498	0.0	500.65977551941296	673.6848235754172	0.0	545.606912218237	759.8089504586085	0.0	492.6472552972253	847.9944154489305	0.0	523.5247037612427	871.9504052939981	0.0	513.4088243638062	873.6176887230876	0.0	477.2388727735325	860.5389517549394	0.0	517.7550243903448	673.699447770923	0.0	553.1140217629537	757.6441359060502	0.0	521.003243531155	834.1727154901156	0.0	553.4410688091017	856.0808550668945	0.0	547.9995999591656	850.0080200072241	0.0	506.0061877279637	847.8200542738425	0.0	533.3161733802485	537.7505134258929	0.0	526.5852501217635	475.78893378632256	0.0	554.5144784881755	502.84210635548607	0.0	536.4646095186243	551.6533343772935	0.0	594.7527295977009	583.3648925093984	0.0	614.4213864028076	542.3017271313192	0.0	536.9335706650925	552.7862368467898	0.0	593.3646604173218	586.5901303540744	0.0	614.2405692121723	546.9540750425383	0.0
34	1.146067415730337	509.4539959255258	677.2767088846299	0.0	503.5980138136832	675.7460936204751	0.0	552.6779911191135	760.7651727027512	0.0	494.0806095624194	846.6295645314018	0.0	524.3546006895275	872.5696790667681	0.0	513.2597327903567	872.8645097252199	0.0	477.9079292713561	857.7232546844908	0.0	519.5373559162066	675.7051280668031	0.0	552.8958222165114	759.6202145693488	0.0	521.5806388772241	834.3509809444178	0.0	553.5729086137293	855.9362797645457	0.0	548.6527255708022	849.5084421941846	0.0	506.1181267390742	847.7147002051795	0.0	532.5770780829009	539.2566824577432	0.0	523.9400924187254	477.7029600631126	0.0	553.3388630717873	504.11222443546126	0.0	535.4369279595019	551.321476790391	0.0	597.9394881634043	572.3414722939999	0.0	611.0877685609535	529.4912449426225	0.0	536.7971351833922	553.1269172481472	0.0	599.4421199621327	576.588540308974	0.0	613.8522443403632	533.3615315719414	0.0
35	1.1797752808988764	512.3968837929767	679.8282900858289	0.0	506.56847653705347	678.940684837019	0.0	559.1311885722602	762.2708053533498	0.0	495.70579290421193	845.5785382138727	0.0	525.837248819163	872.5475735505754	0.0	513.5587322302007	872.3238026585238	0.0	479.3781794931686	856.2243150420891	0.0	522.2226818071623	678.6353250117369	0.0	553.6105770206842	761.8860175945055	0.0	522.1209843957456	834.8044960249329	0.0	553.8026073618573	856.1446819653128	0.0	549.4794327716122	849.2535496556332	0.0	507.0077224926789	847.8759538052064	0.0	532.2950391707484	541.7576420374605	0.0	521.7938257194205	480.9536763234132	0.0	552.2441368462119	506.6664350949387	0.0	533.3640643541975	551.6817408759335	0.0	597.2270011490207	561.1896366017235	0.0	602.0912077006191	517.7376455568922	0.0	538.4962036431697	554.7482433663856	0.0	603.4298263028613	567.7862552605429	0.0	612.0179464177592	522.8897534706647	0.0
